<svg width="400" height="317" viewBox="0 0 400 317" fill="none" xmlns="http://www.w3.org/2000/svg">
<path d="M198.844 141.35L187.156 150.761H194.781V181.377L198.844 178.158V141.35Z" fill="#28ABE3"/>
<path d="M202.188 175.403L214.062 165.744H206.25V135.809L202.219 138.595V175.403H202.188Z" fill="#28ABE3"/>
<path d="M349.219 146.829C350.563 147.51 351.531 148.098 352.125 148.594L356.312 140.669C354.219 139.4 351.688 138.254 348.719 137.233C345.813 136.211 342.656 135.716 339.281 135.716C336.062 135.716 333.063 136.242 330.313 137.325C327.625 138.378 325.469 139.957 323.844 142.031C322.281 144.105 321.5 146.705 321.5 149.801C321.5 153.268 322.594 155.931 324.813 157.788C327.063 159.614 330.531 161.1 335.156 162.277C338.875 163.236 341.844 164.103 344.125 164.908C346.437 165.651 347.594 166.92 347.594 168.654C347.594 171.254 345.125 172.585 340.156 172.585C337.688 172.585 335.344 172.307 333.125 171.719C330.906 171.13 328.969 170.418 327.313 169.552C325.688 168.685 324.531 167.911 323.844 167.23L319.469 175.619C322.281 177.384 325.469 178.777 329.094 179.767C332.687 180.789 336.344 181.284 340 181.284C343.188 181.284 346.125 180.851 348.875 180.015C351.625 179.117 353.812 177.662 355.5 175.681C357.219 173.669 358.094 170.976 358.094 167.694C358.094 164.97 357.437 162.803 356.156 161.131C354.906 159.429 353.125 158.067 350.75 157.045C348.438 156.023 345.688 155.126 342.5 154.321C338.906 153.454 336.156 152.68 334.25 151.999C332.406 151.318 331.5 150.142 331.5 148.47C331.5 145.653 334.031 144.229 339.094 144.229C340.969 144.229 342.812 144.507 344.594 145.034C346.406 145.56 347.938 146.148 349.219 146.829Z" fill="#28ABE3"/>
<path fill-rule="evenodd" clip-rule="evenodd" d="M264.25 181.068C260.687 181.068 257.469 180.449 254.562 179.241C251.656 177.972 249.156 176.269 247.062 174.133C244.969 171.935 243.344 169.49 242.219 166.766C241.094 164.041 240.531 161.255 240.531 158.376C240.531 155.435 241.125 152.618 242.313 149.894C243.5 147.17 245.156 144.786 247.313 142.681C249.469 140.545 252 138.873 254.906 137.635C257.813 136.397 261 135.809 264.438 135.809C268 135.809 271.219 136.49 274.125 137.821C277.031 139.09 279.5 140.824 281.562 143.021C283.656 145.158 285.281 147.572 286.406 150.296C287.531 153.021 288.094 155.776 288.094 158.624C288.094 161.565 287.5 164.382 286.312 167.106C285.125 169.768 283.469 172.183 281.312 174.319C279.219 176.393 276.719 178.065 273.812 179.272C270.875 180.449 267.687 181.068 264.25 181.068ZM250.375 158.438C250.375 160.853 250.937 163.144 252.062 165.311C253.187 167.447 254.781 169.18 256.812 170.511C258.906 171.842 261.406 172.524 264.312 172.524C267.281 172.524 269.781 171.842 271.812 170.449C273.875 168.994 275.406 167.23 276.5 165.094C277.562 162.896 278.125 160.667 278.125 158.376C278.125 155.962 277.562 153.702 276.437 151.566C275.312 149.43 273.687 147.727 271.594 146.458C269.562 145.127 267.094 144.446 264.25 144.446C261.281 144.446 258.75 145.127 256.656 146.52C254.625 147.913 253.062 149.677 251.969 151.813C250.906 153.918 250.375 156.147 250.375 158.438Z" fill="#28ABE3"/>
<path fill-rule="evenodd" clip-rule="evenodd" d="M41.875 180.758L61.5938 136.025H69.5937L89.2188 180.758H78.875L74.3437 170.264H56.8125L52.2813 180.758H41.875ZM65.625 147.789L59 161.874H72L65.625 147.789Z" fill="#28ABE3"/>
<path d="M127.375 136.025L139.812 151.875L152.25 136.025H162.813L144.969 158.655L162.25 180.727H151.656L139.781 165.527L128 180.727H117.25L134.625 158.655L116.688 136.025H127.375Z" fill="#28ABE3"/>
</svg>
