<svg width="100" height="100" viewBox="0 0 100 100" fill="none" xmlns="http://www.w3.org/2000/svg">
<path d="M50 4.16665C37.9728 4.04444 26.3891 8.70252 17.7947 17.1172C9.20038 25.5318 4.2986 37.0145 4.16669 49.0417C4.21303 58.5465 7.27062 67.7922 12.9003 75.4506C18.5299 83.109 26.442 88.7862 35.5 91.6667C37.7917 92.0833 38.625 90.7083 38.625 89.5V81.875C25.875 84.5833 23.1667 75.875 23.1667 75.875C22.3179 73.1412 20.5135 70.8043 18.0834 69.2917C13.9167 66.5417 18.4167 66.5833 18.4167 66.5833C19.8569 66.7759 21.2348 67.292 22.4471 68.093C23.6595 68.894 24.6747 69.959 25.4167 71.2083C26.7097 73.4505 28.8314 75.0954 31.3251 75.7889C33.8187 76.4825 36.485 76.1692 38.75 74.9167C38.983 72.6349 40.0162 70.5093 41.6667 68.9167C31.5 67.7917 20.8334 63.9583 20.8334 46.75C20.7424 42.2612 22.401 37.9129 25.4584 34.625C24.066 30.7711 24.2304 26.5263 25.9167 22.7917C25.9167 22.7917 29.7917 21.5833 38.4167 27.375C45.9246 25.3743 53.8255 25.3743 61.3334 27.375C70.0834 21.5833 73.8334 22.7917 73.8334 22.7917C75.5197 26.5263 75.6841 30.7711 74.2917 34.625C77.42 37.8527 79.1686 42.1717 79.1667 46.6667C79.1667 63.9167 68.4167 67.7083 58.3333 68.8333C59.4374 69.9053 60.2903 71.2085 60.8306 72.6494C61.371 74.0903 61.5854 75.633 61.4583 77.1667V89.4583C61.4583 90.9167 62.2917 92.0833 64.5833 91.625C73.6157 88.7267 81.5011 83.0482 87.1133 75.4006C92.7256 67.753 95.7775 58.5274 95.8333 49.0417C95.7014 37.0145 90.7997 25.5318 82.2053 17.1172C73.6109 8.70252 62.0273 4.04444 50 4.16665" fill="#28ABE3"/>
</svg>
