<svg width="123" height="81" viewBox="0 0 123 81" fill="none" xmlns="http://www.w3.org/2000/svg">
<g clip-path="url(#clip0_104_5)">
<path fill-rule="evenodd" clip-rule="evenodd" d="M24.52 0H98.36C99.76 0 101.05 0.58 101.98 1.51L101.99 1.52L102 1.53C102.93 2.47 103.51 3.75 103.51 5.15V15.64H114.99C117.17 15.64 119.14 16.53 120.56 17.96C121.99 19.39 122.88 21.37 122.88 23.54V56.86C122.88 59.02 121.99 61 120.56 62.43C120.45 62.54 120.34 62.64 120.22 62.73C118.82 63.98 116.98 64.75 114.99 64.75H103.51V75.24C103.51 76.66 102.93 77.94 102 78.88C101.07 79.81 99.78 80.39 98.37 80.39H24.52C23.12 80.39 21.83 79.81 20.89 78.88L20.88 78.87L20.87 78.86L20.86 78.85C19.93 77.91 19.35 76.63 19.35 75.23V64.75H7.89C5.73 64.75 3.75 63.86 2.31 62.43C0.89 61.01 0 59.04 0 56.86V23.54C0 21.36 0.89 19.39 2.31 17.96C2.42 17.85 2.53 17.75 2.65 17.65C4.05 16.4 5.88 15.64 7.89 15.64H19.36V5.14C19.37 3.72 19.95 2.44 20.88 1.5C20.94 1.45 21 1.4 21.06 1.35C21.98 0.51 23.19 0 24.52 0ZM98.86 64.75H24.03V75.23C24.03 75.37 24.08 75.49 24.17 75.58L24.18 75.59C24.27 75.68 24.39 75.73 24.53 75.73H98.37C98.5 75.73 98.62 75.67 98.72 75.58C98.81 75.49 98.87 75.37 98.87 75.23V64.75H98.86Z" fill="#28ABE3"/>
<path fill-rule="evenodd" clip-rule="evenodd" d="M7.89 19.92H114.98C116.97 19.92 118.6 21.57 118.6 23.54V56.86C118.6 58.83 116.95 60.48 114.98 60.48H7.89C5.92 60.48 4.27 58.85 4.27 56.86V23.54C4.27 21.54 5.9 19.92 7.89 19.92Z" fill="white"/>
<path d="M15.69 28.67H21.51V36.38C22.3 35.55 23.09 34.96 23.87 34.61C24.65 34.25 25.57 34.08 26.64 34.08C28.22 34.08 29.47 34.56 30.37 35.53C31.28 36.49 31.73 37.97 31.73 39.97V49.63H25.88V41.27C25.88 40.31 25.7 39.64 25.35 39.25C25 38.85 24.51 38.65 23.87 38.65C23.17 38.65 22.6 38.92 22.17 39.45C21.74 39.99 21.52 40.94 21.52 42.33V49.63H15.7V28.67H15.69ZM42.23 28.67V34.44H45.42V38.71H42.23V44.09C42.23 44.73 42.29 45.16 42.41 45.37C42.6 45.69 42.94 45.85 43.42 45.85C43.85 45.85 44.45 45.73 45.22 45.48L45.65 49.5C44.21 49.82 42.87 49.97 41.62 49.97C40.17 49.97 39.1 49.79 38.42 49.42C37.74 49.05 37.23 48.48 36.9 47.73C36.57 46.97 36.41 45.74 36.41 44.05V38.71H34.27V34.44H36.41V31.65L42.23 28.67ZM55.65 28.67V34.44H58.84V38.71H55.65V44.09C55.65 44.73 55.71 45.17 55.83 45.37C56.02 45.69 56.36 45.85 56.84 45.85C57.27 45.85 57.87 45.73 58.64 45.48L59.07 49.5C57.63 49.82 56.29 49.97 55.04 49.97C53.59 49.97 52.52 49.79 51.84 49.42C51.16 49.05 50.65 48.48 50.32 47.73C49.99 46.98 49.83 45.74 49.83 44.05V38.71H47.69V34.44H49.83V31.65L55.65 28.67ZM61.64 55.39V34.43H67.09V36.67C67.84 35.72 68.54 35.09 69.16 34.75C70 34.3 70.94 34.08 71.97 34.08C74 34.08 75.57 34.86 76.68 36.41C77.79 37.96 78.34 39.89 78.34 42.18C78.34 44.71 77.73 46.64 76.53 47.97C75.32 49.3 73.79 49.97 71.95 49.97C71.05 49.97 70.23 49.82 69.5 49.52C68.76 49.22 68.1 48.77 67.52 48.17V55.39H61.64V55.39ZM67.48 42.08C67.48 43.29 67.73 44.18 68.23 44.77C68.73 45.35 69.37 45.65 70.14 45.65C70.81 45.65 71.38 45.37 71.84 44.81C72.3 44.25 72.52 43.3 72.52 41.96C72.52 40.72 72.28 39.81 71.81 39.23C71.33 38.65 70.76 38.36 70.07 38.36C69.33 38.36 68.71 38.65 68.22 39.24C67.73 39.82 67.48 40.76 67.48 42.08ZM81.17 34.43H87.38V40.25H81.17V34.43ZM81.17 43.8H87.38V49.62H81.17V43.8ZM96.12 28.31H99.06L93.78 49.97H90.84L96.12 28.31ZM104.25 28.31H107.19L101.91 49.97H98.97L104.25 28.31Z" fill="#28ABE3"/>
<path fill-rule="evenodd" clip-rule="evenodd" d="M24.12 64.75H98.8C98.85 64.75 98.89 64.79 98.89 64.84V75.23C98.89 75.5 98.67 75.72 98.4 75.72H24.52C24.25 75.72 24.03 75.5 24.03 75.23V64.84C24.03 64.79 24.07 64.75 24.12 64.75Z" fill="white"/>
<path fill-rule="evenodd" clip-rule="evenodd" d="M30.24 6.61C32.07 6.61 33.56 8.1 33.56 9.92C33.56 11.75 32.07 13.24 30.24 13.24C28.41 13.24 26.93 11.75 26.93 9.92C26.93 8.1 28.41 6.61 30.24 6.61Z" fill="white"/>
<path fill-rule="evenodd" clip-rule="evenodd" d="M41.96 6.61C43.79 6.61 45.28 8.1 45.28 9.92C45.28 11.75 43.79 13.24 41.96 13.24C40.13 13.24 38.65 11.75 38.65 9.92C38.65 8.1 40.13 6.61 41.96 6.61Z" fill="white"/>
<path fill-rule="evenodd" clip-rule="evenodd" d="M53.69 6.61C55.52 6.61 57 8.1 57 9.93C57 11.76 55.51 13.25 53.68 13.25C51.85 13.25 50.36 11.76 50.36 9.93C50.37 8.1 51.86 6.61 53.69 6.61Z" fill="white"/>
</g>
<defs>
<clipPath id="clip0_104_5">
<rect width="122.88" height="80.4" fill="white"/>
</clipPath>
</defs>
</svg>
