<svg width="71" height="71" viewBox="0 0 71 71" fill="none" xmlns="http://www.w3.org/2000/svg">
<g clip-path="url(#clip0_108_52)">
<path d="M17.5962 71C13.9337 71 10.4636 69.9054 7.53783 67.8375C1.96433 64.0035 -0.204129 58.0484 1.11529 50.1615C1.76908 46.2683 3.40504 42.9165 4.85166 39.9641L5.25695 39.1358C5.80129 38.0412 7.16508 37.5324 8.26262 38.0767C9.36016 38.624 9.83645 39.8931 9.29212 40.9877L9.23 41.112L8.875 41.8338C7.526 44.5939 6.04091 47.6321 5.49362 50.8922C4.45525 57.1017 5.9137 61.3292 10.079 64.1958C12.2712 65.7519 14.8538 66.5625 17.5695 66.5625C22.5543 66.5625 27.835 63.9621 32.944 61.4446C36.3964 59.7524 40.2363 58.4212 45.0229 57.2526C46.4488 56.9035 47.8688 56.6994 49.3746 56.4805L49.7296 56.4302C52.7116 56.0072 55.7882 55.5723 58.3886 54.0724C61.2405 52.4305 63.2166 49.6793 63.8112 46.5227C64.2402 44.0732 63.8556 41.6208 62.7019 39.3695C62.3469 38.6743 62.3824 37.846 62.7965 37.1833C63.4947 36.071 63.8468 34.8255 63.8468 33.4854C63.8468 33.441 63.8468 33.3966 63.8497 33.3522C63.7817 30.2549 61.6487 27.551 58.6223 26.7433C58.007 26.5806 57.4627 26.1546 57.1787 25.5896C56.8947 25.0216 56.8325 24.353 57.0663 23.7643L64.7697 4.4375H27.1545L34.8787 23.8471C35.1095 24.427 35.0858 25.0778 34.8137 25.6369C34.5415 26.196 34.0445 26.6191 33.4469 26.7966C30.3998 27.6989 28.3467 30.3998 28.3438 33.512C28.3438 35.7426 29.4591 37.8726 31.3287 39.2038C31.811 39.547 32.1334 40.0677 32.231 40.6475C32.3287 41.2303 32.1896 41.8249 31.8435 42.3071C30.7874 43.7774 29.6366 45.085 28.3349 46.3009C25.9653 48.5462 23.2288 50.3124 20.2084 51.5549C19.525 51.8389 18.5842 51.8152 17.9689 51.404C14.6319 49.1675 13.2178 45.1175 14.5313 41.5557C14.9573 40.4049 16.2442 39.8192 17.3802 40.2422C18.531 40.6682 19.1167 41.9432 18.6937 43.0911C18.2026 44.4194 18.5576 45.8778 19.5694 46.9754C21.7023 45.9666 23.6016 44.6649 25.2819 43.0733C25.8972 42.4965 26.4682 41.9048 27.0037 41.2806C25.0334 39.1772 23.9063 36.3964 23.9063 33.5031C23.9122 29.2224 26.2641 25.4269 29.9472 23.4537L21.8207 3.03821C21.5485 2.35483 21.6313 1.58271 22.0455 0.973292C22.4597 0.363875 23.146 0 23.8826 0H68.0417C68.7783 0 69.4646 0.363875 69.8788 0.973292C70.293 1.58271 70.3758 2.35483 70.1036 3.04117L62.0155 23.3383C65.8347 25.2967 68.2842 29.1721 68.2931 33.4854C68.2931 33.5475 68.2902 33.6096 68.2872 33.6688C68.2606 35.3343 67.879 36.9585 67.169 38.4406C68.3612 41.2569 68.7162 44.2715 68.1955 47.2357C67.3435 51.7738 64.5863 55.6285 60.6103 57.9182C57.2674 59.8471 53.602 60.3648 50.3656 60.8233L50.0165 60.8736C48.6202 61.0748 47.3037 61.2641 46.082 61.5629C41.6119 62.6545 38.0619 63.8822 34.9083 65.4295C29.3407 68.1659 23.5897 71 17.5962 71Z" fill="#28ABE3"/>
<path d="M53.8505 27.0096C53.0488 27.0096 52.2737 26.5747 51.8773 25.8115L45.9636 14.4041L40.041 25.7168C39.473 26.8055 38.1329 27.2255 37.0472 26.6546C35.9615 26.0866 35.5414 24.7435 36.1094 23.6608L44.0082 8.57325C44.3898 7.83959 45.1501 7.384 45.9755 7.384H45.9784C46.8067 7.384 47.5641 7.84846 47.9457 8.58213L55.8178 23.7732C56.3799 24.8618 55.9569 26.199 54.8682 26.764C54.5428 26.9297 54.1937 27.0096 53.8505 27.0096ZM47.712 33.9173H44.4785C43.2538 33.9173 42.2598 32.9233 42.2598 31.6985C42.2598 30.4738 43.2538 29.4798 44.4785 29.4798H47.712C48.9367 29.4798 49.9307 30.4738 49.9307 31.6985C49.9307 32.9233 48.9367 33.9173 47.712 33.9173Z" fill="#28ABE3"/>
<path d="M35.3846 44.3572C29.3141 44.3572 24.3885 39.6357 24.1755 33.6096C24.1755 33.583 24.1755 33.5416 24.1755 33.515V33.4913C24.1755 28.4177 27.6249 24.001 32.5624 22.7466C32.9351 22.6579 33.1037 22.6224 33.302 22.5869C33.3759 22.575 33.4528 22.5662 33.5297 22.5602C33.5889 22.5514 33.6481 22.5425 33.7043 22.5336C33.8818 22.4892 34.0208 22.4774 34.2013 22.4774C34.3877 22.4597 34.5533 22.4419 34.7338 22.4419H36.1272C36.2425 22.4419 36.5591 22.4715 36.6745 22.4892C36.8815 22.4892 37.0857 22.5307 37.2809 22.5928C37.2868 22.5928 37.2957 22.5957 37.3046 22.5957C37.4791 22.6105 37.6477 22.646 37.8134 22.6993L38.0294 22.7437C38.1359 22.7585 38.2424 22.7792 38.337 22.8058C38.5293 22.859 38.7068 22.9152 38.8755 22.9803C38.9198 22.9922 38.9613 23.004 39.0027 23.0188C39.1358 23.0602 39.3281 23.1194 39.544 23.22C39.6091 23.2436 39.6742 23.2732 39.7393 23.3057L39.8192 23.3412C39.8931 23.359 39.9671 23.3856 40.0381 23.4093C40.257 23.4951 40.47 23.5957 40.6682 23.717C40.6889 23.7258 40.7126 23.7377 40.7303 23.7495C40.7806 23.7732 41.0439 23.924 41.0913 23.9536V23.9595C41.1445 23.9832 41.1977 24.0098 41.248 24.0365C41.4137 24.1222 41.5616 24.2199 41.7095 24.3205C41.9166 24.427 42.029 24.5246 42.1947 24.6902C42.461 24.8648 42.9106 25.2642 43.3485 25.6606C45.4992 27.9 46.5938 30.6187 46.5938 33.4824C46.3808 39.6298 41.4581 44.3572 35.3846 44.3572ZM34.4084 26.9179C34.3699 26.9238 34.3315 26.9267 34.293 26.9327C34.1037 26.9859 33.9676 26.9948 33.7694 26.9948C30.6838 27.7995 28.61 30.4501 28.61 33.4913V33.5327C28.7372 37.0797 31.7104 39.9227 35.3817 39.9227C39.053 39.9227 42.0261 37.0768 42.1563 33.441C42.1563 31.7695 41.4965 30.1365 40.3073 28.8881C40.047 28.6574 39.7097 28.3497 39.3429 28.0805C39.3251 28.0687 39.3074 28.0539 39.2926 28.042C39.2364 28.0065 39.1861 27.977 39.1595 27.9562C39.0648 27.906 38.9672 27.8527 38.8695 27.7935C38.7246 27.7344 38.5826 27.6604 38.4465 27.5657C38.3696 27.5391 38.2956 27.5066 38.2217 27.4711C38.124 27.4356 38.0323 27.403 37.9406 27.3616C37.8607 27.335 37.7809 27.3025 37.704 27.264C37.6714 27.2581 37.6418 27.2492 37.6093 27.2403C37.488 27.2107 37.3726 27.1693 37.2572 27.119L36.7602 27.0185C36.7011 27.0066 36.6419 26.9918 36.5857 26.977C36.565 26.9741 36.5413 26.9682 36.5206 26.9622C36.4555 26.9534 36.2662 26.9208 36.1656 26.9001C36.0976 26.8942 36.0325 26.8853 35.9911 26.8794L34.7367 26.8853C34.7042 26.8972 34.5711 26.9149 34.4084 26.9179ZM36.3757 26.912C36.3875 26.912 36.3993 26.9149 36.4112 26.9149C36.3993 26.9149 36.3875 26.9149 36.3757 26.912Z" fill="#28ABE3"/>
<path d="M56.8178 44.3572C50.7473 44.3572 45.8216 39.6357 45.6086 33.6096C45.6086 33.583 45.6086 33.5416 45.6086 33.515V33.4913C45.6086 28.4177 49.058 24.001 53.9955 22.7466C54.3742 22.6579 54.5398 22.6224 54.7351 22.5869C54.809 22.575 54.886 22.5662 54.9629 22.5602C55.022 22.5514 55.0812 22.5425 55.1374 22.5336C55.3149 22.4892 55.454 22.4774 55.6344 22.4774C55.8238 22.4597 55.9865 22.4419 56.1699 22.4419H57.5603C57.6757 22.4419 57.9922 22.4715 58.1046 22.4892C58.3117 22.4892 58.5158 22.5277 58.714 22.5928C58.7229 22.5928 58.7318 22.5957 58.7436 22.5957C58.9152 22.6135 59.0809 22.649 59.2465 22.6993L59.4655 22.7437C59.572 22.7585 59.6785 22.7792 59.7731 22.8058C59.9654 22.859 60.1429 22.9152 60.3115 22.9803C60.3559 22.9922 60.3973 23.004 60.4417 23.0188C60.5748 23.0602 60.7671 23.1194 60.9801 23.217C61.0482 23.2436 61.1133 23.2732 61.1783 23.3028C61.1783 23.3028 61.2109 23.3146 61.2553 23.3353C61.3322 23.356 61.4091 23.3797 61.4801 23.4063C61.699 23.4921 61.909 23.5927 62.1073 23.714C62.125 23.7288 62.1398 23.7347 62.1575 23.7436C62.2108 23.7702 62.477 23.9211 62.5273 23.9507L62.5244 23.9566C62.5776 23.9802 62.6309 24.0069 62.6841 24.0335C62.8468 24.1163 62.9948 24.214 63.1397 24.3145C63.3468 24.421 63.4651 24.5216 63.6308 24.6843C63.8882 24.853 64.329 25.2464 64.7638 25.634C66.9353 27.8912 68.0298 30.6128 68.0298 33.4735C67.8109 39.6298 62.8883 44.3572 56.8178 44.3572ZM55.8415 26.9179C55.803 26.9238 55.7675 26.9267 55.7261 26.9327C55.5398 26.983 55.3978 26.9948 55.2025 26.9948C52.117 27.7995 50.0432 30.4501 50.0432 33.4913V33.5327C50.1704 37.0797 53.1435 39.9227 56.8148 39.9227C60.4831 39.9227 63.4592 37.0738 63.5894 33.438C63.5894 31.7666 62.9297 30.1365 61.7375 28.8881C61.4623 28.6455 61.134 28.3438 60.776 28.0805C60.7583 28.0687 60.7435 28.0568 60.7257 28.042C60.6695 28.0065 60.6222 27.974 60.5926 27.9562C60.495 27.906 60.3973 27.8527 60.2997 27.7935C60.1548 27.7344 60.0128 27.6604 59.8796 27.5657C59.7998 27.5391 59.7199 27.5036 59.6459 27.4681C59.6134 27.4563 59.5246 27.4208 59.4418 27.3853C59.427 27.3823 59.4152 27.3764 59.4004 27.3735C59.3116 27.3439 59.2229 27.3084 59.14 27.267C59.1075 27.261 59.075 27.2522 59.0424 27.2433C58.9241 27.2137 58.8058 27.1723 58.6933 27.122L58.1963 27.0214C58.1372 27.0096 58.081 26.9977 58.0248 26.98C58.0011 26.9741 57.9774 26.9682 57.9538 26.9622C57.8887 26.9534 57.6964 26.9208 57.5988 26.9001C57.5307 26.8942 57.4686 26.8883 57.4272 26.8824L56.1728 26.8883C56.1373 26.8972 56.0042 26.9149 55.8415 26.9179ZM57.8088 26.912C57.8206 26.912 57.8325 26.9149 57.8443 26.9149C57.8325 26.9149 57.8206 26.9149 57.8088 26.912ZM13.848 44.091C8.54367 44.091 4.23042 39.7777 4.23042 34.4794C4.23042 29.1751 8.54367 24.8618 13.845 24.8618C19.1463 24.8618 23.4596 29.1751 23.4596 34.4764C23.4596 39.7777 19.1463 44.091 13.848 44.091ZM13.845 29.2993C10.9902 29.2993 8.66792 31.6246 8.66792 34.4794C8.66792 37.3312 10.9932 39.6535 13.848 39.6535C16.6998 39.6535 19.0221 37.3312 19.0221 34.4764C19.0221 31.6216 16.6998 29.2993 13.845 29.2993Z" fill="#28ABE3"/>
</g>
<defs>
<clipPath id="clip0_108_52">
<rect width="71" height="71" fill="white"/>
</clipPath>
</defs>
</svg>
