<svg width="24" height="24" viewBox="0 0 24 24" fill="none" xmlns="http://www.w3.org/2000/svg">
<g clip-path="url(#clip0_111_13)">
<path d="M12.023 24.001C11.508 24.001 10.991 23.968 10.472 23.901C3.91097 23.059 -0.743027 17.035 0.0989735 10.473C0.506973 7.294 2.12797 4.465 4.66497 2.505C7.20197 0.545998 10.35 -0.308003 13.528 0.0989973C16.707 0.506997 19.537 2.129 21.496 4.665C23.455 7.201 24.309 10.349 23.901 13.527C23.494 16.706 21.873 19.535 19.337 21.495C17.213 23.135 14.663 24.001 12.023 24.001ZM11.98 1.5C9.66997 1.5 7.43897 2.257 5.58197 3.692C3.36197 5.406 1.94397 7.882 1.58697 10.664C0.849974 16.405 4.92197 21.677 10.664 22.413C13.444 22.772 16.201 22.022 18.42 20.308C20.64 18.594 22.058 16.118 22.414 13.337C22.771 10.555 22.024 7.801 20.31 5.582C18.596 3.362 16.12 1.943 13.337 1.587C12.883 1.528 12.43 1.5 11.98 1.5Z" fill="#28ABE3"/>
<path d="M8.15202 19C8.14902 19 8.14502 19 8.14202 19L6.24502 18.983C6.16302 18.982 6.08202 18.968 6.00602 18.942C5.76402 18.893 5.55102 18.772 5.39402 18.59C5.15502 18.317 5.05402 18.044 5.05402 17.762C5.05402 17.71 5.05902 17.652 5.07002 17.601L5.10602 17.43C5.11702 17.38 5.13202 17.332 5.15202 17.285C5.20202 17.174 5.25502 17.093 5.30102 17.033C5.32902 16.988 5.36202 16.945 5.40002 16.905L6.25502 16.024C6.26702 16.01 6.27902 15.997 6.29202 15.984L8.37302 13.841C8.27002 13.77 8.17902 13.679 8.11002 13.565C7.82102 13.087 7.94202 12.527 8.47102 11.902C8.72302 11.594 11.618 8.755 12.305 8.217C13.044 7.645 13.646 7.29 14.369 7.284C15.034 7.292 15.651 7.551 16.082 8.051C16.541 8.583 16.761 9.325 16.656 9.989C16.5 10.969 15.918 11.802 15.368 12.488C14.735 13.265 13.934 14.07 13.163 14.825C13.125 14.862 13.087 14.893 13.052 14.919C13.031 14.943 13.012 14.965 12.999 14.978C11.841 16.027 10.72 16.832 9.40002 17.559L9.39202 17.763C9.39102 17.79 9.38802 17.818 9.38402 17.845C9.36202 18.114 9.25202 18.361 9.06902 18.549L8.96802 18.653C8.75702 18.873 8.45802 19 8.15202 19ZM7.89602 17.606C7.89602 17.606 7.89502 17.607 7.89502 17.608L7.89602 17.606ZM6.92102 17.489L7.90402 17.498L7.92202 17.069C7.93402 16.802 8.08602 16.561 8.32302 16.437C9.67602 15.727 10.793 14.949 11.936 13.919C11.998 13.838 12.081 13.758 12.165 13.706C12.891 12.995 13.635 12.245 14.204 11.545C14.806 10.796 15.098 10.259 15.178 9.755C15.208 9.563 15.139 9.252 14.949 9.031C14.804 8.863 14.652 8.769 14.386 8.785C14.386 8.785 14.386 8.785 14.385 8.785C14.124 8.787 13.8 8.96 13.229 9.401C12.733 9.79 10.852 11.621 10.023 12.452C10.349 12.428 10.657 12.609 10.781 12.915C10.914 13.24 10.804 13.614 10.515 13.815C10.504 13.823 10.427 13.879 10.348 13.961L7.36202 17.036L7.35902 17.033L6.92102 17.489ZM14.378 8.036H14.388H14.378Z" fill="#28ABE3"/>
<path d="M17.315 8.786C16.14 8.786 15.184 7.824 15.184 6.642C15.184 5.46 16.14 4.5 17.315 4.5C18.49 4.5 19.446 5.461 19.446 6.643C19.446 7.825 18.49 8.786 17.315 8.786ZM17.315 6C16.967 6 16.684 6.288 16.684 6.643C16.684 6.998 16.967 7.287 17.315 7.287C17.663 7.287 17.946 6.998 17.946 6.643C17.946 6.288 17.663 6 17.315 6Z" fill="#28ABE3"/>
<path d="M10.085 13.95C9.73002 13.95 9.41402 13.696 9.34802 13.334C9.27402 12.927 9.54402 12.536 9.95202 12.462L10.834 12.303L14.954 8.007C15.242 7.708 15.715 7.698 16.015 7.986C16.314 8.272 16.324 8.748 16.037 9.047L11.749 13.518C11.639 13.631 11.497 13.708 11.341 13.737L10.22 13.94C10.175 13.946 10.13 13.95 10.085 13.95Z" fill="#28ABE3"/>
</g>
<defs>
<clipPath id="clip0_111_13">
<rect width="24" height="24" fill="white"/>
</clipPath>
</defs>
</svg>
