<svg width="85" height="77" viewBox="0 0 85 77" fill="none" xmlns="http://www.w3.org/2000/svg">
<g clip-path="url(#clip0_102_2)">
<path fill-rule="evenodd" clip-rule="evenodd" d="M71.103 5.45685L72.8946 8.07391C73.365 8.76463 73.2474 9.75467 72.6248 10.2765L70.7225 11.8806C71.0684 12.9013 71.2898 13.9911 71.3797 15.1039L73.5448 15.4339C74.3195 15.549 74.8591 16.3472 74.7553 17.2068L74.3541 20.4685C74.2504 21.3281 73.531 21.9344 72.7562 21.8116L70.3905 21.4509C69.9686 22.4716 69.429 23.4079 68.7926 24.2444L70.1207 26.1785C70.5911 26.8692 70.4666 27.8592 69.844 28.3811L67.4852 30.3688C66.8627 30.8907 65.9703 30.7526 65.5 30.0695L64.0542 27.959C63.1273 28.3427 62.152 28.5883 61.1421 28.6881L60.8446 31.0903C60.7409 31.9498 60.0215 32.5484 59.2467 32.4333L56.3069 31.9882C55.5321 31.8731 54.9926 31.0749 55.0963 30.2153L55.4214 27.5906C54.5084 27.1225 53.6575 26.5238 52.9035 25.8254L51.1604 27.2913C50.5378 27.8132 49.6455 27.6827 49.1751 26.992L47.3835 24.3749C46.9131 23.6842 47.0307 22.6942 47.6533 22.1723L49.5555 20.5683C49.2097 19.5399 48.9883 18.4577 48.8984 17.3449L46.7333 17.0149C45.9585 16.8998 45.4121 16.1016 45.5228 15.2421L45.924 11.9803C46.0346 11.1208 46.7471 10.5221 47.5219 10.6373L49.8876 10.998C50.3095 9.98491 50.8491 9.04092 51.4786 8.20438L50.1574 6.27036C49.687 5.58732 49.8046 4.59729 50.4271 4.07541L52.7859 2.08767C53.4085 1.56579 54.3008 1.69626 54.7712 2.38698L56.2169 4.49752C57.1369 4.11378 58.1192 3.86819 59.1222 3.76842L59.4196 1.36625C59.5234 0.506684 60.2428 -0.0996148 61.0175 0.0155053L63.9574 0.460636C64.7321 0.575757 65.2786 1.37392 65.1679 2.23349L64.8428 4.85822C65.7628 5.32638 66.6067 5.925 67.3676 6.63107L69.1108 5.16521C69.7334 4.63566 70.6257 4.76613 71.103 5.45685ZM20.5236 51.5126V38.8494H26.4033C27.4962 38.8494 28.3263 38.9491 28.9004 39.164C29.4746 39.3712 29.945 39.755 30.2908 40.3152C30.6436 40.8831 30.8235 41.5662 30.8235 42.372C30.8235 43.0704 30.6851 43.6844 30.4153 44.1909C30.1456 44.7051 29.772 45.1196 29.3016 45.4342C29.0042 45.6338 28.5892 45.8026 28.0634 45.9331C28.4854 46.0942 28.7898 46.2401 28.9765 46.4012C29.108 46.5087 29.2947 46.7312 29.5368 47.0689C29.7789 47.4066 29.945 47.6752 30.028 47.8594L31.7435 51.5202H27.7591L25.8776 47.6599C25.6355 47.161 25.4279 46.831 25.2412 46.6852C24.9852 46.4933 24.6947 46.3936 24.3765 46.3936H24.0652V51.5202H20.5236V51.5126ZM32.9609 73.5619H26.3756L25.4279 77.0002H19.4929L26.5693 56.1327H32.9332L39.982 77.0002H33.8947L32.9609 73.5619ZM31.7296 69.0415L29.6752 61.5357L27.6138 69.0415H31.7296ZM41.3516 56.1327H51.022C53.1318 56.1327 54.709 56.6853 55.7535 57.7981C56.798 58.911 57.3237 60.4996 57.3237 62.5487C57.3237 64.6593 56.7496 66.3093 55.6082 67.4989C54.4668 68.6885 52.7168 69.2794 50.3718 69.2794H47.1829V77.0002H41.3516V56.1327V56.1327ZM47.1829 65.0507H48.6148C49.7423 65.0507 50.5378 64.8358 50.9944 64.3983C51.4509 63.9686 51.6792 63.4083 51.6792 62.7406C51.6792 62.0883 51.4786 61.528 51.0843 61.0752C50.69 60.6224 49.9429 60.3922 48.85 60.3922H47.1829V65.0507V65.0507ZM59.6756 56.1327H65.5069V77.0002H59.6756V56.1327V56.1327ZM24.0652 43.9914H25.5525C25.7116 43.9914 26.0228 43.93 26.4863 43.8149C26.7215 43.7611 26.9152 43.6307 27.0604 43.4158C27.2126 43.2009 27.2818 42.9553 27.2818 42.679C27.2818 42.2723 27.1642 41.9499 26.929 41.735C26.6938 41.5125 26.258 41.405 25.6147 41.405H24.0652V43.9914ZM32.4214 38.8494H41.8635V41.5508H35.963V43.5693H41.4346V46.148H35.963V48.6422H42.0364V51.5049H32.4214V38.8494ZM42.8734 47.3222L46.2214 47.092C46.2906 47.6983 46.4428 48.1511 46.6641 48.4657C47.0307 48.9723 47.5495 49.2332 48.2205 49.2332C48.7186 49.2332 49.1128 49.1027 49.3826 48.8418C49.6524 48.5808 49.7907 48.2739 49.7907 47.9285C49.7907 47.5985 49.6593 47.3068 49.4034 47.0459C49.1474 46.785 48.5456 46.5471 47.5979 46.3091C46.0554 45.9254 44.9555 45.4112 44.2915 44.7742C43.6274 44.1372 43.2954 43.3237 43.2954 42.3337C43.2954 41.6813 43.4683 41.0673 43.8073 40.4917C44.1462 39.9161 44.6581 39.4557 45.3429 39.1256C46.0277 38.7956 46.9616 38.6345 48.1513 38.6345C49.6109 38.6345 50.7177 38.9338 51.4855 39.5401C52.2464 40.1464 52.7029 41.098 52.8482 42.4181L49.5348 42.6406C49.4449 42.065 49.2581 41.6429 48.9814 41.3897C48.6978 41.1287 48.3035 40.9983 47.8124 40.9983C47.4043 40.9983 47.093 41.098 46.8855 41.2899C46.6779 41.4818 46.5742 41.7197 46.5742 41.996C46.5742 42.1955 46.6641 42.372 46.8301 42.5409C46.9961 42.702 47.3835 42.8632 48.0061 43.009C49.5486 43.3774 50.6554 43.7535 51.3195 44.1295C51.9835 44.5056 52.4747 44.9737 52.7721 45.534C53.0765 46.0866 53.2286 46.7159 53.2286 47.4066C53.2286 48.2201 53.028 48.9646 52.6199 49.6476C52.2187 50.3307 51.6515 50.8525 50.9252 51.2056C50.1989 51.5586 49.2858 51.7351 48.179 51.7351C46.2422 51.7351 44.8933 51.3207 44.1462 50.4918C43.3991 49.6476 42.9772 48.5962 42.8734 47.3222ZM53.7405 38.8494H64.4693V41.9806H60.8723V51.5126H57.3445V41.9806H53.7405V38.8494V38.8494ZM41.8704 8.79533C40.6045 8.68789 39.3248 8.70324 38.059 8.84138C34.1645 9.25581 30.3807 10.8291 27.2541 13.5229C23.6364 16.6312 20.8902 21.282 19.8318 27.4448L19.4998 29.3711L17.7705 29.7088C16.0757 30.0388 14.5608 30.4916 13.2327 31.0672C11.9461 31.6198 10.7978 32.3029 9.79481 33.1087C8.9924 33.7534 8.30067 34.4748 7.71269 35.2576C5.89344 37.6751 5.04953 40.7066 5.07028 43.7765C5.09103 46.8924 6.00412 50.039 7.69194 52.6254C8.32142 53.5847 9.04774 54.4673 9.87782 55.2348C10.7217 56.0099 11.6694 56.6546 12.7347 57.1381C13.3365 57.4144 13.9798 57.6446 14.6508 57.8288V63.5772C13.2673 63.3009 11.9945 62.8864 10.8047 62.3415C9.2345 61.6201 7.84412 60.6915 6.61976 59.5556C5.45765 58.4812 4.4408 57.2609 3.57614 55.9332C1.27267 52.4028 0.0275542 48.0897 -0.000115092 43.7918C-0.0277844 39.448 1.18966 35.1271 3.81824 31.6275C4.66907 30.4916 5.67209 29.4479 6.82036 28.5269C8.1554 27.4525 9.68413 26.5469 11.4135 25.8024C12.6032 25.2882 13.876 24.8584 15.218 24.5131C16.7398 17.8054 19.984 12.6403 24.1552 9.05627C28.0565 5.70244 32.7534 3.7454 37.5886 3.23119C40.1272 2.96258 42.7005 3.08537 45.2184 3.60725C45.1631 3.86052 45.1146 4.11378 45.087 4.37472L45.08 4.42077C45.0316 4.85822 45.0109 5.29568 45.0316 5.74081C44.499 5.97105 44.0009 6.28571 43.5513 6.66945L43.5306 6.6848C42.8596 7.24505 42.2924 7.96647 41.8704 8.79533ZM78.4699 23.5307C78.8573 23.9221 79.2308 24.3289 79.5975 24.7663C80.3376 25.6489 81.0363 26.6466 81.6934 27.7595C83.907 31.5354 85.0414 36.5777 84.993 41.5125C84.9446 46.3552 83.7686 51.1749 81.3614 54.7206C79.7911 57.0307 77.7782 58.9186 75.3641 60.4152C73.7108 61.4436 71.8501 62.2955 69.8233 62.9862V57.0383C70.9162 56.5855 71.9331 56.079 72.8669 55.5034C74.6862 54.3752 76.1734 53.0015 77.2871 51.3514C79.0164 48.7957 79.8672 45.181 79.9018 41.4741C79.9433 37.583 79.0856 33.6766 77.4185 30.837C76.9412 30.0158 76.4155 29.279 75.8621 28.619C75.6477 28.3658 75.4332 28.1278 75.2119 27.8976C75.2465 27.5139 75.2603 27.1225 75.2395 26.731C75.7722 26.5008 76.2702 26.1861 76.7199 25.8024L76.7406 25.7871C77.4531 25.1808 78.048 24.4133 78.4699 23.5307ZM60.9276 9.82374C64.1165 10.3072 66.3439 13.569 65.9081 17.107C65.4723 20.645 62.5324 23.1239 59.3436 22.6404C56.1547 22.1569 53.9204 18.8952 54.3631 15.3572C54.8058 11.8192 57.7387 9.34023 60.9276 9.82374Z" fill="#28ABE3"/>
</g>
<defs>
<clipPath id="clip0_102_2">
<rect width="85" height="77" fill="white"/>
</clipPath>
</defs>
</svg>
