<svg width="84" height="84" viewBox="0 0 84 84" fill="none" xmlns="http://www.w3.org/2000/svg">
<path d="M2.83331 36.125L26.9166 12L33.9583 19.0833C32.9583 22.625 34.5833 26.5 37.8333 28.375V51.4583C35.3333 52.875 33.6666 55.5833 33.6666 58.6666C33.6666 60.8768 34.5446 62.9964 36.1074 64.5592C37.6702 66.122 39.7898 67 42 67C44.2101 67 46.3297 66.122 47.8925 64.5592C49.4553 62.9964 50.3333 60.8768 50.3333 58.6666C50.3333 55.5833 48.6666 52.875 46.1666 51.4583V31.2083L54.7917 39.9166C54.5 40.5416 54.5 41.25 54.5 42C54.5 44.2101 55.378 46.3297 56.9408 47.8925C58.5036 49.4553 60.6232 50.3333 62.8333 50.3333C63.9277 50.3333 65.0113 50.1178 66.0223 49.699C67.0334 49.2802 67.952 48.6664 68.7259 47.8925C69.4997 47.1187 70.1135 46.2001 70.5323 45.189C70.9511 44.178 71.1666 43.0943 71.1666 42C71.1666 40.9056 70.9511 39.822 70.5323 38.811C70.1135 37.7999 69.4997 36.8812 68.7259 36.1074C67.952 35.3336 67.0334 34.7198 66.0223 34.301C65.0113 33.8822 63.9277 33.6666 62.8333 33.6666C62.0833 33.6666 61.375 33.6666 60.75 33.9583L50.0416 23.25C50.559 21.3201 50.3584 19.2681 49.4772 17.4749C48.5959 15.6818 47.0939 14.2694 45.25 13.5C43.4583 12.8333 41.5833 12.6666 39.9166 13.125L32.8333 6.08331L36.125 2.83331C39.375 -0.458354 44.625 -0.458354 47.875 2.83331L81.1666 36.125C84.4583 39.375 84.4583 44.625 81.1666 47.875L47.875 81.1666C44.625 84.4583 39.375 84.4583 36.125 81.1666L2.83331 47.875C-0.458354 44.625 -0.458354 39.375 2.83331 36.125Z" fill="#28ABE3"/>
</svg>
