<svg width="123" height="81" viewBox="0 0 123 81" fill="none" xmlns="http://www.w3.org/2000/svg">
<g clip-path="url(#clip0_105_14)">
<path fill-rule="evenodd" clip-rule="evenodd" d="M24.52 0H98.36C99.76 0 101.05 0.58 101.98 1.51L101.99 1.52L102 1.53C102.93 2.47 103.51 3.75 103.51 5.15V15.64H114.99C117.17 15.64 119.14 16.53 120.56 17.96C121.99 19.39 122.88 21.37 122.88 23.54V56.86C122.88 59.02 121.99 61 120.56 62.43C120.45 62.54 120.34 62.64 120.22 62.73C118.82 63.98 116.98 64.75 114.99 64.75H103.51V75.24C103.51 76.66 102.93 77.95 102 78.88C101.07 79.81 99.78 80.39 98.37 80.39H24.52C23.12 80.39 21.83 79.82 20.89 78.88L20.88 78.87L20.87 78.86L20.86 78.85C19.93 77.91 19.35 76.63 19.35 75.23V64.75H7.89C5.73 64.75 3.75 63.86 2.31 62.43C0.89 61.01 0 59.04 0 56.86V23.54C0 21.36 0.89 19.39 2.31 17.96C2.42 17.85 2.53 17.75 2.65 17.65C4.05 16.4 5.88 15.64 7.89 15.64H19.36V5.14C19.37 3.72 19.95 2.44 20.88 1.5C20.94 1.45 21 1.4 21.06 1.35C21.98 0.51 23.19 0 24.52 0ZM98.86 64.75H24.03V75.23C24.03 75.37 24.08 75.49 24.17 75.58L24.18 75.59C24.27 75.68 24.39 75.73 24.53 75.73H98.37C98.5 75.73 98.62 75.68 98.72 75.58C98.81 75.49 98.87 75.37 98.87 75.23V64.75H98.86Z" fill="#28ABE3"/>
<path fill-rule="evenodd" clip-rule="evenodd" d="M7.89 19.92H114.98C116.97 19.92 118.6 21.57 118.6 23.54V56.86C118.6 58.83 116.95 60.48 114.98 60.48H7.89C5.92 60.48 4.27 58.85 4.27 56.86V23.54C4.27 21.54 5.9 19.92 7.89 19.92Z" fill="white"/>
<path fill-rule="evenodd" clip-rule="evenodd" d="M24.12 64.75H98.8C98.85 64.75 98.89 64.79 98.89 64.84V75.23C98.89 75.5 98.67 75.72 98.4 75.72H24.52C24.25 75.72 24.03 75.5 24.03 75.23V64.84C24.03 64.79 24.07 64.75 24.12 64.75Z" fill="white"/>
<path fill-rule="evenodd" clip-rule="evenodd" d="M30.24 6.61C32.07 6.61 33.56 8.1 33.56 9.93C33.56 11.76 32.07 13.25 30.24 13.25C28.41 13.25 26.93 11.76 26.93 9.93C26.93 8.1 28.41 6.61 30.24 6.61Z" fill="white"/>
<path fill-rule="evenodd" clip-rule="evenodd" d="M41.96 6.61C43.79 6.61 45.28 8.1 45.28 9.93C45.28 11.76 43.79 13.25 41.96 13.25C40.13 13.25 38.65 11.76 38.65 9.93C38.65 8.1 40.13 6.61 41.96 6.61Z" fill="white"/>
<path fill-rule="evenodd" clip-rule="evenodd" d="M53.69 6.61C55.52 6.61 57 8.1 57 9.93C57 11.76 55.51 13.25 53.68 13.25C51.85 13.25 50.36 11.76 50.36 9.93C50.36 8.1 51.86 6.61 53.69 6.61Z" fill="white"/>
<path d="M9.88 28.71H15.61V36.29C16.39 35.48 17.16 34.9 17.93 34.55C18.69 34.2 19.6 34.03 20.65 34.03C22.2 34.03 23.43 34.51 24.32 35.45C25.21 36.4 25.66 37.85 25.66 39.81V49.3H19.91V41.1C19.91 40.16 19.74 39.5 19.39 39.11C19.04 38.72 18.56 38.53 17.94 38.53C17.25 38.53 16.69 38.79 16.27 39.32C15.84 39.85 15.63 40.79 15.63 42.15V49.32H9.88V28.71ZM35.22 28.71V34.38H38.36V38.58H35.22V43.86C35.22 44.49 35.28 44.92 35.4 45.12C35.58 45.43 35.92 45.59 36.39 45.59C36.81 45.59 37.4 45.47 38.16 45.22L38.58 49.18C37.17 49.49 35.85 49.65 34.62 49.65C33.2 49.65 32.14 49.46 31.47 49.1C30.8 48.74 30.29 48.18 29.97 47.44C29.65 46.7 29.49 45.49 29.49 43.82V38.57H27.39V34.37H29.49V31.63L35.22 28.71ZM47.99 28.71V34.38H51.13V38.58H47.99V43.86C47.99 44.49 48.05 44.92 48.17 45.12C48.35 45.43 48.69 45.59 49.16 45.59C49.58 45.59 50.17 45.47 50.93 45.22L51.35 49.18C49.94 49.49 48.62 49.65 47.39 49.65C45.97 49.65 44.91 49.46 44.24 49.1C43.57 48.74 43.06 48.18 42.74 47.44C42.42 46.7 42.26 45.49 42.26 43.82V38.57H40.16V34.37H42.26V31.63L47.99 28.71ZM53.32 54.98V34.38H58.68V36.58C59.42 35.65 60.11 35.02 60.72 34.7C61.55 34.27 62.47 34.04 63.49 34.04C65.48 34.04 67.03 34.81 68.12 36.33C69.21 37.85 69.76 39.75 69.76 42C69.76 44.49 69.16 46.39 67.97 47.7C66.79 49 65.28 49.66 63.46 49.66C62.58 49.66 61.77 49.51 61.05 49.21C60.33 48.92 59.67 48.47 59.1 47.88V54.98H53.32V54.98ZM59.06 41.89C59.06 43.08 59.31 43.96 59.8 44.53C60.29 45.1 60.92 45.39 61.68 45.39C62.34 45.39 62.9 45.11 63.35 44.56C63.79 44.02 64.02 43.08 64.02 41.76C64.02 40.54 63.78 39.64 63.32 39.08C62.86 38.51 62.28 38.23 61.61 38.23C60.88 38.23 60.27 38.52 59.79 39.09C59.31 39.67 59.06 40.6 59.06 41.89ZM71.05 45.17L76.72 44.65C76.95 45.32 77.28 45.8 77.7 46.09C78.12 46.38 78.68 46.52 79.39 46.52C80.16 46.52 80.76 46.34 81.18 46.03C81.5 45.79 81.67 45.48 81.67 45.12C81.67 44.71 81.45 44.38 81.02 44.16C80.72 44.01 79.89 43.8 78.56 43.57C76.58 43.23 75.19 42.89 74.42 42.61C73.66 42.32 72.99 41.81 72.47 41.12C71.95 40.42 71.68 39.61 71.68 38.71C71.68 37.73 71.97 36.87 72.53 36.17C73.09 35.46 73.89 34.92 74.89 34.57C75.89 34.22 77.24 34.04 78.92 34.04C80.7 34.04 82.02 34.18 82.85 34.45C83.69 34.72 84.41 35.15 84.97 35.72C85.53 36.29 86.01 37.07 86.38 38.05L80.97 38.57C80.83 38.1 80.59 37.74 80.27 37.52C79.83 37.23 79.28 37.07 78.64 37.07C78 37.07 77.52 37.19 77.24 37.42C76.96 37.65 76.8 37.93 76.8 38.25C76.8 38.62 77 38.9 77.36 39.08C77.72 39.26 78.55 39.45 79.8 39.59C81.7 39.8 83.12 40.11 84.04 40.49C84.96 40.87 85.68 41.43 86.16 42.14C86.65 42.85 86.9 43.64 86.9 44.49C86.9 45.35 86.63 46.2 86.12 47.01C85.61 47.82 84.77 48.48 83.66 48.96C82.55 49.44 81.02 49.68 79.09 49.68C76.37 49.68 74.42 49.28 73.27 48.51C72.13 47.71 71.38 46.6 71.05 45.17ZM89.1 34.38H95.2V40.11H89.1V34.38ZM89.1 43.59H95.2V49.31H89.1V43.59ZM102.12 28.37H105.01L99.82 49.66H96.93L102.12 28.37ZM110.11 28.37H113L107.81 49.66H104.92L110.11 28.37Z" fill="#28ABE3"/>
</g>
<defs>
<clipPath id="clip0_105_14">
<rect width="122.88" height="80.4" fill="white"/>
</clipPath>
</defs>
</svg>
