<svg width="83" height="103" viewBox="0 0 83 103" fill="none" xmlns="http://www.w3.org/2000/svg">
<mask id="mask0_111_4" style="mask-type:alpha" maskUnits="userSpaceOnUse" x="0" y="0" width="83" height="103">
<path d="M3.17583 94.3582L0.00368689 9.83497C-0.101077 7.0435 2.03932 4.67776 4.82732 4.50351L76.7203 0.0102008C79.5581 -0.167165 82.0024 1.98958 82.1798 4.82743C82.1865 4.93435 82.1898 5.04145 82.1898 5.14858V97.2516C82.1898 100.095 79.8848 102.4 77.0414 102.4C76.9644 102.4 76.8874 102.398 76.8104 102.395L8.08961 99.3083C5.41321 99.1881 3.27631 97.0354 3.17583 94.3582Z" fill="white"/>
</mask>
<g mask="url(#mask0_111_4)">
<path d="M3.17583 94.3582L0.00368689 9.83497C-0.101077 7.0435 2.03932 4.67776 4.82732 4.50351L76.7203 0.0102008C79.5581 -0.167165 82.0024 1.98958 82.1798 4.82743C82.1865 4.93435 82.1898 5.04145 82.1898 5.14858V97.2516C82.1898 100.095 79.8848 102.4 77.0414 102.4C76.9644 102.4 76.8874 102.398 76.8104 102.395L8.08961 99.3083C5.41321 99.1881 3.27631 97.0354 3.17583 94.3582Z" fill="#28ABE3"/>
<path d="M60.691 12.5866L61.182 0.775741L71.0551 0L71.4804 12.1801C71.4952 12.604 71.1636 12.9597 70.7397 12.9745C70.5582 12.9808 70.3803 12.9226 70.2376 12.8102L66.4303 9.81091L61.9224 13.2304C61.5845 13.4867 61.1028 13.4206 60.8464 13.0826C60.7385 12.9404 60.6835 12.765 60.691 12.5866ZM48.0643 38.596C48.0643 40.599 61.5564 39.639 63.3676 38.232C63.3676 24.5918 56.0486 17.4242 42.6463 17.4242C29.244 17.4242 21.7349 24.7034 21.7349 35.6222C21.7349 54.6391 47.3989 55.0031 47.3989 65.376C47.3989 68.2876 45.9731 70.0164 42.8364 70.0164C38.7492 70.0164 37.1333 67.9291 37.3234 60.8318C37.3234 59.2922 21.7349 58.8122 21.2596 60.8318C20.0494 78.031 30.7648 82.9918 43.0265 82.9918C54.908 82.9918 64.2231 76.6587 64.2231 65.194C64.2231 44.8122 38.1789 45.3581 38.1789 35.2582C38.1789 31.1637 41.2205 30.6177 43.0265 30.6177C44.9275 30.6177 48.3494 30.9528 48.0643 38.596Z" fill="white"/>
</g>
</svg>
